<svg width="24" height="24" viewBox="0 0 24 24" fill="none" xmlns="http://www.w3.org/2000/svg">
<path fill-rule="evenodd" clip-rule="evenodd" d="M14.2356 6.5256C14.2463 6.50655 14.2671 6.49703 14.2879 6.50084C15.4313 6.69829 16.5249 7.04303 17.5447 7.51096C17.5535 7.51476 17.5611 7.52112 17.5655 7.53C19.3723 10.1877 20.2647 13.1856 19.9311 16.6369C19.9299 16.6515 19.9223 16.6648 19.9103 16.6737C19.2332 17.171 18.5666 17.5716 17.9075 17.8984C17.6744 18.014 17.4423 18.1203 17.211 18.2185C17.2108 18.2186 17.2105 18.2187 17.2103 18.2188C17.0356 18.2929 16.8613 18.3623 16.6875 18.4275C16.427 18.5251 16.1675 18.6133 15.9087 18.6933C15.8879 18.6997 15.8652 18.692 15.8526 18.6743C15.842 18.6596 15.8315 18.6448 15.821 18.63C15.7541 18.5361 15.6887 18.441 15.6247 18.3448C15.528 18.1994 15.4346 18.0515 15.3448 17.901C15.3447 17.9008 15.3446 17.9006 15.3445 17.9004C15.3018 17.8289 15.26 17.7568 15.2189 17.6842C15.2177 17.6819 15.2164 17.6796 15.2151 17.6773C15.1922 17.6366 15.1695 17.5958 15.1471 17.5547C15.1429 17.5472 15.1388 17.5396 15.1347 17.532C15.1012 17.4702 15.0682 17.408 15.0359 17.3454C15.022 17.3181 15.0347 17.2851 15.063 17.2743C15.1852 17.2282 15.3057 17.1796 15.4246 17.1283C15.4265 17.1275 15.4285 17.1267 15.4304 17.1258C15.4508 17.117 15.4712 17.1081 15.4915 17.0991C15.5012 17.0948 15.5109 17.0905 15.5206 17.0862C15.5731 17.0628 15.6252 17.0389 15.6771 17.0144C15.8484 16.9336 16.0166 16.847 16.1819 16.7544C16.184 16.7532 16.1861 16.752 16.1882 16.7509C16.1907 16.7494 16.1932 16.748 16.1957 16.7466C16.2001 16.7442 16.2044 16.7417 16.2088 16.7393C16.2088 16.7393 16.2089 16.7392 16.2089 16.7392C16.217 16.7346 16.2252 16.73 16.2333 16.7254C16.2595 16.7104 16.2857 16.6953 16.3117 16.6801C16.3433 16.6617 16.3452 16.6166 16.3162 16.595C16.2836 16.5708 16.2511 16.5461 16.2189 16.5211C16.2188 16.521 16.2188 16.521 16.2187 16.5209C16.2027 16.5085 16.1867 16.496 16.1708 16.4834C16.1665 16.48 16.1622 16.4766 16.1579 16.4732C16.1274 16.4489 16.0973 16.4245 16.0677 16.4001C16.0525 16.388 16.0324 16.3855 16.0153 16.3937C15.6737 16.5516 15.3277 16.6886 14.9785 16.8048C14.951 16.8139 14.9235 16.8229 14.896 16.8318C14.8956 16.8319 14.8952 16.832 14.8948 16.8322C14.7204 16.8885 14.5451 16.9396 14.3693 16.9855C13.927 17.1009 13.4806 17.1836 13.0322 17.2335C12.3442 17.31 11.6515 17.3093 10.9617 17.2315C10.5141 17.181 10.0678 17.0981 9.62478 16.9826C9.44844 16.9367 9.27263 16.8856 9.09746 16.8294C9.09731 16.8293 9.09716 16.8293 9.09701 16.8292C9.07028 16.8206 9.04357 16.8119 9.01687 16.8031C8.66633 16.6873 8.31848 16.5508 7.97437 16.3937C7.95733 16.3861 7.93714 16.3887 7.92265 16.4007C7.89681 16.422 7.87056 16.4433 7.84405 16.4644C7.83649 16.4704 7.8289 16.4764 7.8213 16.4824C7.8054 16.495 7.78943 16.5074 7.7734 16.5199C7.77238 16.5207 7.77137 16.5214 7.77035 16.5222C7.73863 16.5468 7.70671 16.5711 7.67479 16.595C7.64579 16.6166 7.64831 16.6617 7.67984 16.6801C7.70592 16.695 7.73208 16.7099 7.7583 16.7246C7.7657 16.7288 7.77312 16.7329 7.78053 16.737C7.78094 16.7373 7.78134 16.7375 7.78174 16.7377C7.79119 16.743 7.80065 16.7483 7.81012 16.7535C7.81103 16.754 7.81194 16.7545 7.81285 16.755C8.03546 16.8781 8.26308 16.9926 8.49656 17.0968C8.49936 17.0981 8.50217 17.0993 8.50498 17.1006C8.52355 17.1089 8.54214 17.1171 8.56078 17.1252C8.56338 17.1263 8.56598 17.1275 8.56858 17.1286C8.68681 17.1801 8.80656 17.2289 8.92793 17.275C8.9563 17.2858 8.96955 17.3181 8.95567 17.3454C8.92471 17.4068 8.89308 17.4677 8.86079 17.5282C8.85966 17.5303 8.85854 17.5324 8.85741 17.5345C8.82768 17.5902 8.79738 17.6455 8.76653 17.7004C8.76604 17.7013 8.76554 17.7022 8.76505 17.7031C8.72811 17.7688 8.69038 17.8341 8.65187 17.8989C8.65091 17.9005 8.64996 17.9022 8.649 17.9038C8.56005 18.0533 8.46698 18.2003 8.37002 18.3447C8.30583 18.4403 8.23993 18.5347 8.17239 18.6281C8.16108 18.6437 8.14973 18.6593 8.13834 18.6749C8.12509 18.692 8.10302 18.6997 8.0822 18.6933C7.82437 18.6132 7.56558 18.5249 7.30567 18.4272C7.13596 18.3633 6.96579 18.2954 6.79509 18.223C6.79074 18.2212 6.78638 18.2193 6.78202 18.2175C6.55098 18.1192 6.319 18.0127 6.08598 17.8969C5.42863 17.5703 4.76302 17.1702 4.08695 16.6737C4.0756 16.6648 4.0674 16.6509 4.06614 16.6363C3.78738 13.651 4.35561 10.6283 6.42988 7.52937C6.4349 7.52112 6.44247 7.51476 6.45131 7.51096C7.47172 7.0424 8.56529 6.69766 9.70805 6.50084C9.72887 6.49767 9.74967 6.50719 9.7604 6.5256C9.90167 6.77574 10.0631 7.09638 10.1722 7.35857C11.3768 7.17446 12.6003 7.17446 13.8301 7.35857C13.9392 7.10208 14.095 6.77574 14.2356 6.5256ZM12.7036 5.23837C13.1679 4.6802 13.9017 4.40251 14.6331 4.53084C15.9487 4.75848 17.2064 5.15525 18.3788 5.69318C18.6836 5.83304 19.0065 6.07361 19.2433 6.44068C21.2759 9.44547 22.3017 12.8918 21.9222 16.826C21.8659 17.4202 21.5565 17.9433 21.1006 18.2809L21.0941 18.2857L21.0941 18.2857C19.5286 19.4354 17.9984 20.1404 16.4998 20.604L16.4926 20.6062L16.4926 20.6062C15.6589 20.8606 14.7443 20.5611 14.2273 19.8397C14.0672 19.6169 13.9131 19.3877 13.7658 19.1524C12.5936 19.3372 11.4058 19.3362 10.2311 19.1502C10.0794 19.3924 9.91944 19.6278 9.75196 19.8565L9.73672 19.8773L9.72095 19.8977C9.22517 20.5394 8.35439 20.8675 7.4984 20.6062L7.48853 20.6032L7.48854 20.6032C5.9978 20.1398 4.46832 19.4352 2.90313 18.2857L2.87868 18.2678L2.8548 18.2491C2.44851 17.9313 2.13071 17.4306 2.07457 16.8198C1.75693 13.413 2.41967 9.93002 4.76075 6.42748C4.98318 6.08982 5.28931 5.84244 5.622 5.69099C6.79513 5.15285 8.05308 4.75643 9.36859 4.52986L9.38754 4.5266L9.40656 4.5237C10.1058 4.41707 10.8276 4.67943 11.292 5.23786C11.7615 5.21451 12.2323 5.21472 12.7036 5.23837ZM8.42984 14.4455C8.52546 14.5346 8.6314 14.6102 8.74523 14.6696C8.74963 14.6718 8.75404 14.6741 8.75846 14.6764C8.93844 14.7677 9.13769 14.8186 9.3467 14.8186C9.36329 14.8186 9.37981 14.8182 9.39626 14.8176C10.1737 14.7885 10.7846 14.0764 10.7846 13.2059C10.7972 12.3234 10.1539 11.5933 9.3467 11.5933C8.54575 11.5933 7.90877 12.3171 7.90877 13.2059C7.90877 13.7035 8.11233 14.1494 8.42984 14.4455ZM14.6025 14.8171C14.6226 14.8181 14.6429 14.8186 14.6632 14.8186C14.8532 14.8186 15.0335 14.7785 15.198 14.7055C15.2083 14.7009 15.2186 14.6962 15.2288 14.6914C15.3642 14.6273 15.4884 14.5407 15.598 14.4359C15.9077 14.1398 16.1011 13.6982 16.1011 13.2059C16.1137 12.3234 15.4704 11.5933 14.6632 11.5933C13.8622 11.5933 13.2253 12.3171 13.2253 13.2059C13.2253 14.0719 13.8418 14.7811 14.6025 14.8171ZM8.78515 13.1932C8.78555 13.1884 8.78618 13.1831 8.78714 13.1774C8.7934 13.1397 8.81346 13.0818 8.87057 13.0175C8.94994 12.9282 9.11684 12.8186 9.3467 12.8186C9.58855 12.8186 9.75173 12.9327 9.82352 13.013C9.88694 13.084 9.90545 13.1503 9.90834 13.1934C9.90864 13.1978 9.90877 13.202 9.90877 13.2059C9.90877 13.2375 9.89737 13.3104 9.82279 13.3944C9.74342 13.4837 9.57653 13.5933 9.3467 13.5933C9.12135 13.5933 8.95735 13.4864 8.87788 13.397C8.81498 13.3262 8.79178 13.2572 8.78621 13.2059C8.78573 13.2016 8.78539 13.1973 8.78515 13.1932ZM14.1017 13.1937C14.1019 13.1977 14.1023 13.2018 14.1027 13.2059C14.1083 13.2572 14.1315 13.3262 14.1944 13.397C14.2739 13.4864 14.4379 13.5933 14.6632 13.5933C14.893 13.5933 15.0599 13.4837 15.1393 13.3944C15.2139 13.3104 15.2253 13.2375 15.2253 13.2059C15.2253 13.202 15.2251 13.1979 15.2248 13.1934C15.222 13.1503 15.2035 13.084 15.14 13.013C15.0682 12.9327 14.9051 12.8186 14.6632 12.8186C14.4394 12.8186 14.2706 12.9259 14.1874 13.0198C14.1301 13.0845 14.1103 13.1417 14.1039 13.1774C14.1028 13.1835 14.1021 13.189 14.1017 13.1937Z" fill="#685A85"/>
</svg>
