<svg width="32" height="32" viewBox="0 0 32 32" fill="none" xmlns="http://www.w3.org/2000/svg">
<path d="M10.4615 2L15.3846 4.76923V10.3077L10.4615 13.0769L5.53845 10.3077V4.76923L10.4615 2Z" fill="white"/>
<path d="M21.5384 2L26.4615 4.76923V10.3077L21.5384 13.0769L16.6154 10.3077V4.76923L21.5384 2Z" fill="white"/>
<path d="M10.4615 20.7692L15.3846 23.5385V29.0769L10.4615 31.8461L5.53845 29.0769V23.5385L10.4615 20.7692Z" fill="white"/>
<path d="M21.5384 20.7692L26.4615 23.5385V29.0769L21.5384 31.8461L16.6154 29.0769V23.5385L21.5384 20.7692Z" fill="white"/>
<path d="M27.0769 11.3846L32 14.1539V19.6923L27.0769 22.4616L22.1538 19.6923V14.1539L27.0769 11.3846Z" fill="white"/>
<path d="M4.92308 11.3846L9.84615 14.1539V19.6923L4.92308 22.4616L0 19.6923V14.1539L4.92308 11.3846Z" fill="white"/>
<path d="M16 11.3846L20.9231 14.1539V19.6923L16 22.4616L11.0769 19.6923V14.1539L16 11.3846Z" fill="white"/>
</svg>
