<svg xmlns="http://www.w3.org/2000/svg" width="26" height="26" fill="none" style=""><rect id="backgroundrect" width="100%" height="100%" x="0" y="0" fill="none" stroke="none"/>

<g class="currentLayer" style=""><title>Layer 1</title><path d="M7.9702,9 C8.7024,7.4464000000000015 10.677900000000001,6.33333 13.0001,6.33333 C15.945599999999999,6.33333 18.3334,8.1242 18.3334,10.3333 C18.3334,12.199300000000001 16.6299,13.7668 14.325700000000001,14.2088 C13.6025,14.3475 13.0001,14.930299999999999 13.0001,15.666699999999999 M13,19.6667 H13.013300000000001 M25,13 C25,19.6274 19.6274,25 13,25 C6.372579999999999,25 1,19.6274 1,13 C1,6.372579999999999 6.372579999999999,1 13,1 C19.6274,1 25,6.372579999999999 25,13 z" stroke="#35235d" stroke-width="2" stroke-linecap="round" stroke-linejoin="round" id="svg_1" class="selected" stroke-opacity="1"/></g></svg>