<svg width="32" height="32" viewBox="0 0 32 32" fill="none" xmlns="http://www.w3.org/2000/svg">
<path d="M10.4617 1.0769L15.3847 3.84614V9.3846L10.4617 12.1538L5.53857 9.3846V3.84613L10.4617 1.0769Z" fill="white"/>
<path d="M21.5386 1.0769L26.4616 3.84614V9.3846L21.5386 12.1538L16.6155 9.3846V3.84613L21.5386 1.0769Z" fill="white"/>
<path d="M10.4617 19.8462L15.3847 22.6154V28.1539L10.4617 30.9231L5.53857 28.1539V22.6154L10.4617 19.8462Z" fill="white"/>
<path d="M21.5386 19.8462L26.4616 22.6154V28.1539L21.5386 30.9231L16.6155 28.1539V22.6154L21.5386 19.8462Z" fill="white"/>
<path d="M16.0002 10.4615L20.9233 13.2308V18.7692L16.0002 21.5385L11.0771 18.7692V13.2308L16.0002 10.4615Z" fill="#1FC796"/>
</svg>
