<svg width="24" height="24" viewBox="0 0 24 24" fill="none" xmlns="http://www.w3.org/2000/svg">
<path fill-rule="evenodd" clip-rule="evenodd" d="M5.83772 13.0672C5.78836 13.0518 5.73969 13.0364 5.69189 13.0211C5.6595 13.0107 5.6275 13.0004 5.59597 12.9901C5.48549 12.9542 5.37773 12.9203 5.27373 12.8876C4.50914 12.6472 3.94765 12.4706 4.00386 12.0223C4.03712 11.757 4.40247 11.4856 5.0999 11.2083C5.2602 11.1385 5.41851 11.0695 5.57482 11.0014C5.62653 10.9789 5.67802 10.9565 5.72929 10.9342C9.67583 9.21608 12.33 8.0738 13.6918 7.50738C14.0766 7.34735 14.4327 7.19975 14.7625 7.06366C14.8735 7.01786 14.9816 6.97336 15.0868 6.93013C17.9924 5.73578 18.7032 5.50872 19.1877 5.50009C19.3095 5.49805 19.582 5.52826 19.7586 5.67149C19.9076 5.79243 19.9486 5.95581 19.9682 6.07047C19.9879 6.18514 20.0123 6.44636 19.9929 6.65046C19.7712 8.98009 18.8118 14.6335 18.3237 17.2427C18.1172 18.3468 17.7105 18.717 17.3168 18.7532C16.6393 18.8155 16.0909 18.4246 15.4805 17.9894C15.3201 17.875 15.1554 17.7576 14.9829 17.6446C14.306 17.2009 13.7829 16.8446 13.2583 16.4874C12.7781 16.1603 12.2966 15.8325 11.695 15.436C11.0603 15.0177 10.8821 14.6817 10.9517 14.3642C11.0194 14.0554 11.3215 13.7642 11.666 13.4321C11.7791 13.323 11.8968 13.2096 12.0123 13.0896C12.0639 13.036 12.3161 12.8016 12.6717 12.471C13.249 11.9343 14.0988 11.1443 14.8045 10.4641C15.2308 10.0532 15.6046 9.68246 15.8339 9.43184C15.975 9.2777 16.0615 9.16901 16.0719 9.12441C16.081 9.08551 16.0895 8.9405 16.0034 8.86394C15.9278 8.79679 15.8207 8.80866 15.7337 8.82665C15.7214 8.82917 15.7096 8.83181 15.6983 8.83438C15.6865 8.83706 15.6587 8.85081 15.6148 8.87562C15.5728 8.89937 15.5161 8.93325 15.4447 8.97728C15.2054 9.12481 14.8012 9.38618 14.232 9.76139C13.4369 10.2855 12.3198 11.0318 10.8809 12.0002C10.4448 12.2937 9.97911 12.6076 9.48388 12.9419C9.45286 12.9632 9.422 12.9839 9.39129 13.0041C8.83986 13.3658 8.33815 13.5418 7.88615 13.5321C7.41469 13.5219 6.553 13.291 5.83772 13.0672ZM9.08527 15.3532C9.12752 15.4731 9.17938 15.5928 9.24149 15.7118C9.57801 16.3563 10.1265 16.7976 10.5945 17.106C11.1832 17.4939 11.6536 17.8143 12.1349 18.142L12.199 18.1857C12.7031 18.5289 13.2226 18.882 13.8865 19.3172C14.0235 19.407 14.1513 19.4981 14.3102 19.6113C14.3447 19.6359 14.3807 19.6616 14.4186 19.6885C14.6112 19.8253 14.8587 19.9991 15.1267 20.1565C15.6744 20.4783 16.4823 20.8384 17.5001 20.7448C19.3272 20.5766 20.0474 18.905 20.2896 17.6105C20.7764 15.0083 21.7525 9.27143 21.9839 6.83995C22.0249 6.40841 21.9787 5.96178 21.9396 5.7331C21.8986 5.49368 21.7517 4.71317 21.0187 4.11845C20.6127 3.78899 20.1839 3.64977 19.9176 3.58611C19.6384 3.51939 19.3717 3.49673 19.1541 3.50037L19.152 3.50041C18.5158 3.51174 17.8934 3.6955 17.084 3.98922C16.2402 4.29544 14.9622 4.81287 12.9238 5.66074C11.4759 6.26297 8.60588 7.49928 4.32898 9.36259C3.91806 9.52776 3.48364 9.73695 3.11038 10.0142C2.77966 10.2598 2.13852 10.8232 2.0194 11.7735C1.93331 12.4602 2.13725 13.1078 2.54455 13.6084C2.88817 14.0308 3.30616 14.2626 3.55809 14.3847C3.92891 14.5643 4.43528 14.7222 4.7755 14.8283C4.8526 14.8524 4.92117 14.8738 4.97769 14.8921C5.38121 15.0233 5.86847 15.1704 6.33942 15.2885C6.76396 15.3949 7.33712 15.5207 7.84295 15.5316C8.27743 15.541 8.69294 15.4732 9.08527 15.3532ZM5.30186 10.7848C5.29316 10.7806 5.29594 10.7812 5.3077 10.7875C5.3054 10.7865 5.30346 10.7856 5.30186 10.7848Z" fill="#685A85"/>
</svg>
