<svg width="24" height="24" viewBox="0 0 24 24" fill="none" xmlns="http://www.w3.org/2000/svg">
<circle cx="12" cy="12" r="12" fill="#1FC796"/>
<path d="M9.40388 5.00476L11.7116 6.30284V8.89899L9.40388 10.1971L7.09619 8.89899V6.30284L9.40388 5.00476Z" fill="white"/>
<path d="M14.5963 5.00476L16.904 6.30284V8.89899L14.5963 10.1971L12.2886 8.89899V6.30284L14.5963 5.00476Z" fill="white"/>
<path d="M9.40388 13.8029L11.7116 15.1009V17.6971L9.40388 18.9952L7.09619 17.6971V15.1009L9.40388 13.8029Z" fill="white"/>
<path d="M14.5963 13.8029L16.904 15.1009V17.6971L14.5963 18.9952L12.2886 17.6971V15.1009L14.5963 13.8029Z" fill="white"/>
<path d="M12.0001 9.40381L14.3078 10.7019V13.298L12.0001 14.5961L9.69238 13.298V10.7019L12.0001 9.40381Z" fill="white"/>
</svg>
