<svg width="24" height="24" viewBox="0 0 24 24" fill="none" xmlns="http://www.w3.org/2000/svg">
<circle cx="12" cy="12" r="12" fill="#20C4D8"/>
<g clip-path="url(#clip0_1062_2781)">
<path d="M9.40388 5.00482L11.7116 6.3029V8.89905L9.40388 10.1971L7.09619 8.89905V6.3029L9.40388 5.00482Z" fill="white"/>
<path d="M14.5963 5.00482L16.904 6.3029V8.89905L14.5963 10.1971L12.2886 8.89905V6.3029L14.5963 5.00482Z" fill="white"/>
<path d="M17.1922 9.40387L19.4999 10.7019V13.2981L17.1922 14.5962L14.8845 13.2981V10.7019L17.1922 9.40387Z" fill="white"/>
<path d="M6.80769 9.40387L9.11538 10.7019V13.2981L6.80769 14.5962L4.5 13.2981V10.7019L6.80769 9.40387Z" fill="white"/>
<path d="M11.7116 17.6971L9.40388 18.9952L7.09619 17.6971V15.101L9.40388 13.8029L9.69235 13.6406V13.2981V10.7019L12 9.40387L14.3077 10.7019V13.2981V13.6406L14.5962 13.8029L16.9039 15.101V17.6971L14.5962 18.9952L12.2885 17.6971L12 17.5349L11.7116 17.6971Z" fill="white"/>
</g>
<defs>
<clipPath id="clip0_1062_2781">
<rect width="15" height="15" fill="white" transform="translate(4.5 4.5)"/>
</clipPath>
</defs>
</svg>
