<svg width="32" height="33" viewBox="0 0 32 33" fill="none" xmlns="http://www.w3.org/2000/svg">
<path d="M16.068 29.7653C8.96811 29.7592 3.11834 24.1905 2.76288 17.0995C2.40743 10.0085 7.67098 3.88274 14.7347 3.16663V8.55329C10.7221 9.23139 7.85987 12.8162 8.08684 16.8793C8.31382 20.9424 11.5576 24.1861 15.6206 24.4131C19.6837 24.6401 23.2686 21.7778 23.9467 17.7653H29.3333C28.6397 24.574 22.9106 29.7561 16.0667 29.7653H16.068ZM29.3347 15.0986H23.948C23.3806 11.7462 20.7538 9.12004 17.4013 8.55329V3.16663C23.7041 3.81193 28.6873 8.7946 29.3333 15.0973L29.3347 15.0986Z" fill="white"/>
</svg>
