<svg width="32" height="33" viewBox="0 0 32 33" fill="none" xmlns="http://www.w3.org/2000/svg">
<path d="M16 29.8333C8.63621 29.8333 2.66667 23.8638 2.66667 16.5C2.66667 9.13616 8.63621 3.16663 16 3.16663C23.3638 3.16663 29.3333 9.13616 29.3333 16.5C29.3253 23.8604 23.3605 29.8252 16 29.8333ZM16 5.83329C10.109 5.83329 5.33334 10.6089 5.33334 16.5C5.33334 22.391 10.109 27.1666 16 27.1666C21.891 27.1666 26.6667 22.391 26.6667 16.5C26.6601 10.6117 21.8883 5.83991 16 5.83329ZM22.6667 17.8333H14.6667V9.83329H17.3333V15.1666H22.6667V17.8333Z" fill="white"/>
</svg>
