<svg width="32" height="33" viewBox="0 0 32 33" fill="none" xmlns="http://www.w3.org/2000/svg">
<path d="M16 29.8333C9.91868 29.8333 5.33334 27.2533 5.33334 23.8333V8.5H5.39601C5.8623 6.767 7.11316 5.35233 8.77601 4.67733C11.0376 3.63038 13.5084 3.11369 16 3.16666C22.0813 3.16666 26.6667 5.74666 26.6667 9.16666C26.6654 9.39035 26.6439 9.61347 26.6027 9.83333H26.6667V23.8333C26.6667 27.2533 22.0813 29.8333 16 29.8333ZM7.70268 13.0253V23.8333C7.70268 25.192 10.9333 27.1667 16 27.1667C21.0667 27.1667 24.296 25.192 24.296 23.8333V13.0253C21.7962 14.5269 18.9143 15.2708 16 15.1667C13.0853 15.2706 10.2031 14.5267 7.70268 13.0253ZM16 5.83333C10.9333 5.83333 7.70268 7.80799 7.70268 9.16666C7.70268 10.5253 10.9333 12.5 16 12.5C21.0667 12.5 24.296 10.5253 24.296 9.16666C24.296 7.80799 21.0667 5.83333 16 5.83333Z" fill="white"/>
</svg>
